<svg xmlns="http://www.w3.org/2000/svg" viewBox="0 0 32 32" fill="#0d6efd">
  <!-- Bass fish silhouette -->
  <path d="M4 16c0-3 2-5 5-8 3-2 6-2 9 0 4 2 6 4 8 8 1 2 1 4-1 6-1 1-2 2-4 2-1 0-2-1-3-2-2-1-4-1-6 0-1 1-2 2-3 2-2 0-3-1-4-2-2-2-2-4-1-6z"/>
  <!-- Eye -->
  <circle cx="12" cy="14" r="1.5" fill="white"/>
  <circle cx="12" cy="14" r="0.8" fill="#0d6efd"/>
  <!-- Tail fin -->
  <path d="M25 12c2-1 3 0 3 2s-1 3-3 2c0-1 0-3 0-4z" fill="#0d6efd"/>
  <!-- Dorsal fin -->
  <path d="M14 8c1-2 2-2 3-1s0 2-1 3c-1 0-2-1-2-2z" fill="#0d6efd"/>
</svg>