<?xml version="1.0" encoding="utf-8"?>
<!-- Svg Vector Icons : http://www.onlinewebfonts.com/icon -->
<!DOCTYPE svg PUBLIC "-//W3C//DTD SVG 1.1//EN" "http://www.w3.org/Graphics/SVG/1.1/DTD/svg11.dtd">
<svg version="1.1" xmlns="http://www.w3.org/2000/svg" xmlns:xlink="http://www.w3.org/1999/xlink" x="0px" y="0px" viewBox="0 0 256 256" enable-background="new 0 0 256 256" xml:space="preserve">
<metadata> Svg Vector Icons : http://www.onlinewebfonts.com/icon </metadata>
<g><g><g><path fill="#000000" d="M115.7,10.1c-28,3.5-52.1,15-71.4,34.3C26.9,61.9,15.8,83.2,11.2,108c-1,5.5-1.2,8.3-1.2,20c0,11.8,0.2,14.4,1.2,20.1c4.5,24.4,15.7,46,32.9,63.3c17.7,17.7,39.1,28.8,65.2,33.6c7.2,1.3,30,1.3,37.3,0c25.9-4.8,47.3-15.8,65-33.4c17.6-17.6,28.6-39,33.4-65c1.4-7.4,1.3-30-0.1-37.5c-1.5-8.5-3.8-16.8-6.5-23.5c-15.3-39-49-66.7-90.1-74.2c-5-0.9-8.7-1.2-18.5-1.3C123.1,9.9,116.7,10,115.7,10.1z M138.1,14.6c45.2,4.1,83.5,34.1,97.7,76.8c14.1,42.1,3,88-28.5,118.4c-12.6,12.1-26.6,20.7-42.6,26c-49.6,16.5-102.8-1.7-131.8-45c-13.5-20.3-20.4-46.6-18.5-71c2.9-37.1,22-68.9,53.3-88.6C87.8,18.6,113.9,12.4,138.1,14.6z"/><path fill="#000000" d="M99.9,59.1c-1.3,1.1-1.7,3.7-3.1,25.5c-1,14.5-1.8,24.2-2.2,27.1l-0.3,2l-5.4-0.3c-2.9-0.2-10.8-0.8-17.3-1.4l-11.9-1.1l-1.3,1.2c-1.6,1.5-1.7,3.7-0.2,5.1c0.6,0.5,1.5,1.7,1.9,2.6c0.5,0.9,1.7,2.4,2.8,3.5c1.1,1,3.1,3.2,4.6,4.8c1.4,1.6,3.3,3.4,4.1,3.9c1.8,1.2,3.6,5.2,3.6,7.8c0,2.9,1.2,5.2,4.2,8.3c4.2,4.3,11.5,8.5,13.7,7.9c1.7-0.4,4.4-3.5,5.7-6.5c1-2.2,3.1-3.7,4.3-3c0.3,0.2,2.2,0.5,4.3,0.8c3.8,0.5,3.8,0.5,7.1,3.9c1.8,1.9,3.5,4.3,3.8,5.2c1.1,3.8,3.9,9.9,5.3,11.3c0.8,0.9,2,2.5,2.7,3.6c0.6,1.1,1.8,2.4,2.4,2.8c0.7,0.5,1.3,1.2,1.2,1.7c0,2.7,0.7,6.3,1.6,7.2c0.5,0.6,1.3,2.1,1.6,3.3c0.8,2.8,2.2,4,6.5,5.7c1.9,0.7,4.2,1.8,5.1,2.2c0.9,0.5,2.4,0.9,3.5,0.9c1,0,2.7,0.5,3.6,1.1c1.9,1.2,4.7,1.4,6,0.4c1.5-1.2,2.7-3.5,2.7-5.2c0-0.9-0.5-3.3-1.1-5.4c-1.4-4.5-1.1-7.3,1-11.2c2.5-4.6,6.2-7.9,12.1-10.8c2.9-1.4,6.4-3.6,7.8-4.7c6-5.2,7.9-6.5,11.1-7.9c1.9-0.7,3.9-2,4.4-2.7c0.9-1.2,2.4-9.9,2.9-17c0.2-3,0.1-3.9-1-5.9c-3.4-6.4-3.7-7.8-4.2-16.9c-0.6-9.7-1.1-11.2-3.7-11.2c-1.7,0-6.1-1.8-7.9-3.2c-1-0.7-2-0.9-6.4-0.7c-3.4,0.2-5.6,0.5-6.4,1.1c-1.2,0.7-1.5,0.7-4.6-0.4c-3.2-1.1-3.5-1.1-4.7-0.3c-1.3,0.9-1.4,0.9-3.1-0.2c-1-0.6-2.2-0.9-2.9-0.7c-0.9,0.3-1.8-0.2-3.1-1.4c-1.5-1.3-2.3-1.7-3.4-1.4c-2.1,0.4-6.1-0.7-7.3-2.1c-0.9-0.9-1.8-1.3-3.2-1.3c-1.1,0-2.6-0.4-3.2-0.9c-1-0.7-1.2-1.3-1.2-4.4c0-2,0.4-7.3,0.8-11.8c1.1-11.1,1.9-10.4-11.6-10.9c-5.6-0.2-12.5-0.5-15.3-0.6C101.8,58.2,100.9,58.3,99.9,59.1z M125.2,63.9c3.9,0.3,3.9,0.3,3.6,1.7c-0.5,2.2-1.1,20-0.7,21.5c0.4,1.6,3.8,4.1,6.1,4.4c1,0.1,2,0.6,2.4,1c0.7,1,6.2,2.6,9,2.7c1.4,0.1,2.2,0.5,3.1,1.5c1,1.2,1.5,1.4,3.7,1.4c1.4,0,2.8,0.3,3,0.5c1.1,1.1,3.7,1.5,5.4,0.8c1.3-0.6,2.1-0.6,4.2,0.1c3.2,1,4.7,1,5.5-0.1c0.5-0.6,1.8-0.8,4.8-0.8c3.6,0,4.7,0.2,8.1,1.9c2.2,1,4.3,1.9,4.6,1.9c0.4,0,0.6,1.4,0.6,3.8c0.1,8.7,0.9,13.3,3.1,18.1c2.8,5.9,3,6.8,2,9.2c-0.5,1.1-0.9,3.1-0.9,4.5c0,1.4-0.3,3.8-0.6,5.2c-0.6,2.6-0.7,2.7-3.9,4c-1.8,0.8-4,2.1-4.9,2.9c-7.6,6.7-10.1,8.3-21.6,14.1c-1.7,0.9-3.2,1.9-3.4,2.3c-0.2,0.4-1.2,1.3-2.3,1.9c-1.9,0.9-2.3,1.5-2.1,2.7c0.3,2,0.1,4-0.9,7.5l-1.1,4.1l1,4.1c1.3,5,1.3,5.1,0.2,4.5c-0.5-0.3-2-0.7-3.4-0.9c-1.3-0.2-3.4-0.8-4.5-1.3c-1.2-0.5-3.2-1.3-4.6-1.8c-2.3-0.9-2.6-1.2-3.3-3.5c-0.4-1.4-1-3-1.3-3.6c-0.7-1.3-1.4-3.9-1.2-5.1c0.2-1.5-1-3.6-2.6-4.5c-0.9-0.5-2.2-2.1-2.9-3.5c-0.7-1.3-1.8-2.8-2.2-3.2c-1.1-0.9-3.6-6.4-4.5-9.6c-0.4-1.4-1.8-3.5-4.3-6.2c-2.1-2.2-4-4.3-4.4-4.5s-2.4-0.6-4.6-1c-2.2-0.3-4.2-0.8-4.4-1.1c-0.9-0.7-2.7-0.6-5.5,0.6c-2.4,1-2.9,1.5-4.5,4.7c-2.1,4.2-3.2,4.6-5.8,2.3c-1-0.9-2.5-1.9-3.4-2.4c-0.9-0.5-2.5-1.8-3.6-3c-1.7-1.9-2-2.6-2-4.6c0-4.2-3.5-10.9-6.1-11.9c-0.7-0.2-2.3-1.7-3.6-3.2c-1.3-1.5-3.2-3.7-4.3-4.8c-2.6-2.7-2.6-3.7-0.3-3.4c3.5,0.5,13.1,1.3,18.5,1.6c3.1,0.2,7,0.4,8.8,0.5c4.6,0.4,5.5-0.5,6.2-6c0.4-3.2,3.7-47.3,3.7-48.8C102.9,62.9,118.1,63.4,125.2,63.9z"/></g></g></g>
</svg>
